# xmcd
#
# Track frame offsets:
#       150
#       10043
#       26533
#       40909
#       62168
#       90105
#       112622
#       130290
#       145765
#       163810
#       186727
#       208430
#       226572
#       249130
#
# Disc length: 3541 seconds
#
# Revision: 1
# Processed by: cddbd v1.5.1PL0 Copyright (c) Steve Scherf et al.
# Submitted via: MusiCat 1.1
#
DISCID=af0dd30e
DTITLE=Inkubus Sukkubus - Away WithThe faeries
DYEAR=1998
DGENRE=
TTITLE0=Wytches Chant 98
TTITLE1=Away with The faeries
TTITLE2=Come To Me
TTITLE3=Turnera
TTITLE4=Starchild
TTITLE5=To Pan
TTITLE6=Woman To Hare (live0
TTITLE7=Paint It Black (live)
TTITLE8=Craft Of The Wise (live)
TTITLE9=Heartbeat of the Earth (live)
TTITLE10=Witch Hunt (live)
TTITLE11=Queen of the May (live)
TTITLE12=Take My Hunger (live)
TTITLE13=Vampyre Erotica (live)
EXTD=\n\nLive tracks recorded at Axiom Centre Cheltenham 16/6/98
EXTT0=
EXTT1=
EXTT2=
EXTT3=
EXTT4=
EXTT5=
EXTT6=
EXTT7=
EXTT8=
EXTT9=
EXTT10=
EXTT11=
EXTT12=
EXTT13=
PLAYORDER=
